<?xml version="1.0" encoding="UTF-8" standalone="no"?>
<svg viewBox="0 0 140 288" xmlns="http://www.w3.org/2000/svg">
<path d="m72.1127,3.10613c-4.4955,6e-006-9.36134,1.46033-12.21875,5.125-1.47779,2.37933-1.65169,5.29589-2.09375,8-.26979,2.82626-.68588,5.75398-.0937,8.5625 1.2688,2.10117 3.18496-1.02638 3.65625-2.3125 1.45273-2.78205 1.96013-6.09736 4.125-8.46875 1.59722-.68426 3.38377-.97787 4.84375-2.0625 2.12059-.36295 3.35806,1.8678 3.625,3.65625s1.84852,2.40809 3.28125,2.8125c-.27027,1.69549-2.48667,2.17438-3.8125,2.9375-2.04373.70629-3.06581,2.92508-2.5,4.96875 .94823,1.79126 3.55397.59968 5.15625.5625 1.84312.1919 3.05301-2.09894 4.65625-1.75 .16623,1.62498-2.53578,2.5754-1.71875,4.28125-.21522,1.47616-1.99584,3.92868-3.6875,2.90625-1.36102-.72765-2.46971-2.76094-3.875-2.8125 1.10212,1.97145-.78111,3.23446-1.90625,4.375 1.50653.85749-2.04757,2.03628-3,1.21875-1.34513-1.18394-3.17887-.56236-1.40625,1.03125 1.72846,1.98767 4.07908,4.10182 6.9375,3.625 1.23007-.15346 5.06832-1.10172 2.96875,1.0625-1.29853,1.43434-3.16553,2.06929-4.84375,2.90625-.9061,1.14271.64511,3.46993 2,3.53125h8.40625c.76017-1.42366-1.54781-1.88707-.84375-3.5625 .61761-2.20936 4.38349.4423 4.9375-2.40625 .61897-1.92399.91621-4.22678 0-6.09375-1.69732.08875-1.96601-3.70941-.0312-2.5 1.23383-.01808-.23952-2.31349.59375-3.1875 .56771-2.00752 2.27959-4.04035 1.1875-6.1875-1.66071-3.07802-.72682-6.72136-1.90625-9.9375-1.13066-3.40698-2.943-6.94819-6.125-8.84375-1.94184-.99939-4.14211-1.40819-6.3125-1.4375zm-8.0625,18.875c-.94132-.01532-2.06929.49904-.5625,1.125 1.3593,1.2465-3.40904,1.65375-1.28125,3.25 1.56183.72592 3.48373.90578 5.09375.25 1.64067-1.33668.0527-3.7298-1.53125-4.3125-.42079-.17858-.88586-.28432-1.34375-.28125-.11921-.0248-.24053-.02906-.375-.03125zm12.84375.25c.91161.0365 3.56002-.07222 3.1875,1.09375-1.62432.43638-3.53469.51409-5.0625-.25-.23971-.82524 1.37221-.7595 1.875-.84375zm4.65625,6.15625c.91047,1.35484.10065,3.35105-.0312,4.9375-.41724,1.83377-.64185,3.8474-1.75,5.40625-.63535-.73408-.2956-3.82627-1.96875-1.625-.53344.94714-2.944,1.23792-1.71875-.3125 1.00938-2.02954 4.48487-1.28183 4.1875-4.09375 .10626-1.4203-.0542-3.43431 1.28125-4.3125zm-11.5625,7.5625c1.29555-.02192 2.89082,1.91325.78125,2.03125-1.26038.46794-4.30214-1.32835-1.03125-2 .0826-.01978.16363-.02979.25-.03125zm-2.76414,9.22874c-3.618,1.32004-2.52889,16.55528-.53125,8 .47102-2.20756 2.55987-6.20955.53125-8zm16.21875.46875c-.43973-.0091-.96272.03434-1.5625.125-.12946.19498-.27519.37024-.40625.5625-.0361.23303-.16455.44253-.375.53125-4.53743,6.50396-9.91314,11.59294-14.34375,18.9375-8.88035,12.1065-2.36064-8.97091-4.125-14.1875-6.9447,4.98311 5.00589-7.63866-4-3.59375-13.90745,1.61429-12.41273,17.48875-13.3125,27.875-.63275,6.45726.51949,13.52934-.625,19.6875-4.55091,5.61194-9.16091,6.68562-4.625,12.71874-.72905,8.9187-.97501,11.21065-1.53125,17.40625 10.51181,2.23742 4.22961,16.55432 5.59375,24.6875 .54314,4.98704-1.39026,19.92998-2.1875,6.84375 2.16969-7.92565-1.72588-9.92297-7.8125-7.9375 7.22207-3.14449-4.38335-13.94096-6.375-5.40625 4.64021,3.6388 1.83103,14.29734.96875,3.84375-6.82633-4.83634 1.96165-7.53782 2.6875-11.34375-7.5008-7.23479-2.91295,6.102-10.21875,4.59375 4.84082-3.58094 2.0437-15.90715-3.3125-7.15625 8.05939-2.23579 1.96216,5.59503.625,7.03125 2.14978.50139-6.64965,10.91103 1.625,5.3125 8.15724-8.4718 5.67215,17.22985 3.9375,3.46875-4.69991-6.39768-8.13846,7.9037-8.875,11.65625-2.27571,6.31243 4.26143,20.34234.21875,21.78125-1.58072-7.95124-.87946,9.57214-1.15625,12.0625-2.28467,10.24781 2.59861,21.48121 14.8125,16.4375 6.28262-2.80445 18.92002,7.00134 17.03125-5.84375 1.89307-10.0527-4.23671-17.57434-2.9375-26.5625-.69532,4.3359-8.34668.70534-2.46875,6 1.82343,2.9892-9.09992.0808-5.4375-2.96875-2.8669-9.25501 7.5708,2.29502 7.84375-6.90625-1.06114-5.2977-4.06619,5.4081-3.84375-3.46875-.75572-2.78786 6.46453,3.05934 3-3.53125-6.17132,1.29024.42762-10.05646-6.125-6.875 4.90589-4.92401 6.18898,7.11921 10.03125,9.28125 3.33118,5.31526 8.4087,4.18157 4.0625,9.65625 .081,10.85714.85235,21.77221 2.28125,32.53125 5.63845-2.22602 10.94485,7.32475 3.53125,3.34375-9.16569-2.75986 4.33703,5.2946-2.84375,7.125 4.87648,3.29306 7.30612-10.16937 6.65625,1-1.06624,12.23756-1.16769,24.54045-1.5,36.8125 8.88702-.38577 5.20942,6.14041-.875,7.84375-6.73278,4.85066 11.30455,5.12813 7.8125-1.9375 3.18349-2.73992 2.63629,3.99151 4.09375-1.5625 4.52594,5.23246 1.66179-1.22592 6.6875.15625 1.26417-6.83312 6.45884-3.66222 7.625.65625 .73034-6.38044 4.78093-15.00472 1.5-16.90625-4.60247,4.41818.66375-8.03828-4.0625-9.6875 4.76252-2.43064 1.04392-13.19904.5625-20.375 3.93069-3.94339-2.13308-10.38437.8125-16.375 1.61863-5.25701-7.54478,1.18772-1.875-4.1875 4.67172-7.37489 1.38859-19.19522 6.1875-26.96875-3.90507-3.80105 6.79293-8.30505 4.875-15.8125 4.28758-7.512 12.53259-10.19223 18.3125-15.6875 6.46798-5.34759-2.22995-20.75589 5.84375-22.90625 4.53823-2.70368 7.97849-2.68339.8125-4.28125-8.068-5.49954-10.63401-16.61303-11.8125-26.56249-3.65925-11.18778 1.30414-26.87949-10.65625-33.9375-3.16965-2.6211-6.28909-4.72626-9.28125-.6875-5.18488,4.3351 5.12725-6.17673-1.46875-6.3125zm.25,220.68749c-.13886,1.21312-.17622,2.3551 0,3.34375 .34601-1.09314.29349-2.25692 0-3.34375zm-23.9375-212.06249c.67461,4.54387-3.71661,18.30087-2.0625,6.3125 .57705-2.11692.95574-4.40833 2.0625-6.3125zm-4.8125,10.9375c.31069,7.15338-11.07284,5.54279-1.75,1.5625l1.1875-.96875 .5625-.59375zm6.46875,6.0625c.86312,3.08908-4.89415,2.712-.6875.09375l.6875-.09375zm-9.75.96875c8.24849,2.34217.0389,4.8436 0,0zm8.25,3.46875c1.99582,4.34547 4.36335,13.09512-3.65625,17.34375 5.7748-4.37988-.23654-9.56779-1-10.09375 6.45314.31165 1.98568-3.1731 4.65625-7.25zm-5.40625,2.8125c3.50451,3.3143-.82015,3.38944 0,0zm.4375,10.25c.40868,1.09259-2.75299,6.63742-1.90625,10.40625-1.02983-2.50883-2.40551-10.11491 1.90625-10.40625zm34.4375,3.0625c1.67198,8.15616 3.13266,17.47594 9.96875,23.46874 8.65965,5.08009 7.89055,15.84179-3.15625,14.71875-5.05641-.43503-.18189-12.99999-4.3125-17.25-1.33805-6.3797-7.99601-15.0632-2.5-20.93749zm-28.75,3.375c-.62097,2.74435-1.05965,7.51499-3.03125,1.40625 .84848-.74779 1.90675-1.25268 3.03125-1.40625zm-1.78125,8.59375c1.42033,1.42093-3.38246,16.27164-3.09375,5.87499 3.85455-2.84264-.50654-3.57332 3.09375-5.87499zm-23.75,3.15624c-4.54306,1.2537-21.69638,6.93301-14.34375,10.84375 1.13397-4.7653 18.68589-1.19038 14.34375-10.84375zm2.5625,6.78125c-7.78545-.0585.92782,5.25507.9375.40625l-.9375-.40625zm14.96875.4375c3.7417,3.78782-3.69274,4.17553 0,0zm5.75.46875c.40428,4.21019-6.49788,1.64229 0,0zm-27.75,1.53125c-5.71522,3.79295 5.77973,6.06293 0,0zm97.99999,1.0625c-4.03515,2.77011 11.08389,5.41512 1.875.375l-1.875-.375zm-102.74999.0625c-4.94346,1.70001-4.27407,6.29012-8.21875,2.09375-1.73046,4.85785.64124,18.55625 4.625,7.9375-.22596-3.59815 4.46476-8.99832 3.59375-10.03125zm30.84375.9375c4.45427,6.76869-3.38653,2.61623 0,0zm62.46874,0c-3.12283,4.43325 3.48705,6.01416 2.6875,7.875 4.51275-1.03314 4.41508-11.1462-.875-5.28125-.50488-.90358-.6487-2.26053-1.8125-2.59375zm-84.84374,1.28125c-5.98384,1.83122-3.59243,11.90575-.0937,3.75 .64404,5.26675 6.87778,9.87741 2.875,1.5625-.227-1.83661-.81106-4.59109-2.78125-5.3125zm-6.71875.65625c-6.04497,4.03877 5.84008,3.53499 0,0zm100.12499.0312c1.09075,4.00032 5.75614,2.37825 0,0zm-115.21874.3125c-4.43216,2.12601 2.69847,2.10304 0,0zm-2.65625.28125c-4.58826,1.37462-9.40983,9.63135-2.28125,3.09375 .36351-.91759 3.0594-1.81017 2.28125-3.09375zm116.37499,1.34375c-4.01605,6.3795 9.07005,2.9276 0,0zm-74.68749,1.03125c3.52839,2.21025-1.84629,2.53374 0,0zm64.31249.0312c-1.50189,5.83315-2.20716,12.48972 3.75,9.21875-1.20234,3.27517 1.33366.98739 2.78125,2.03125-2.56233-3.45518-3.13233-8.58574-6.53125-11.25zm-58.28124.46875c3.51026,8.51161-5.3037,5.10017 0,0zm-31.46875.96875c-7.44444,3.68919 7.81153,14.63621 8.15625,8.75 .0304-4.56099-4.1996-7.4001-8.15625-8.75zm-16.78124.65625c-6.30491,3.38489-1.04049,3.41718 3.34375,1.8125 .87499-1.44904-3.00679.74852-3.34375-1.8125zm17.21874,1.875c3.52839,2.21025-1.84629,2.53374 0,0zm95.56249,1c-4.02999,2.69252 3.89339,2.35666 0,0zm-22,3c3.18873,1.18363-3.48636,2.24671 0,0zm-59.74999,1c-7.12486,3.16247-.24257,6.89881 0,0zm82.06249,2.34375c.17323.23035.33815.47392.53125.6875-.14031-.31702-.33242-.52949-.53125-.6875zm-6.6875.71875c-2.93474,3.31021 3.45617,3.06191 0,0zm-61.09374.1875c1.40526,8.40831-1.29742,5.85247 0,0zm-14.53125,1.75c-3.54802,5.06413 4.01207,6.08282 0,0zm79.53124,1.40625c-9.15641,2.34546 5.29501,4.58975-2.21875,6.84375-8.28543-3.75565-1.8397,17.60073-1.96875,4.5 2.89889,2.24245 9.61664,8.92591 3.71875.65625-1.28069-3.78101 5.83874-7.87567.46875-12zm-83.53124.59375c-4.02999,2.69252 3.89339,2.35666 0,0zm2.9375,4c-5.25116,1.97565 6.04456.81652 0,0zm84.43749,4.1875c-1.34548,4.38164 1.65213,1.80263 0,0zm-101.84374,2.75c1.7665,4.95659-3.79077,5.24984 0,0zm37.03124.4375c3.4467,5.18471-2.43088,6.43399 0,0zm-19.34375.34375c4.53372,1.46984-7.41889,13.48884-2.59375,3.53125 .93189-2.50554-1.89335-1.39703-2.28125-1.3125 .11991-.10179.95727-.57798 3.25-1.9375l1.625-.28125zm85.24999,2.75c-1.4717,2.43469 1.53097,5.44688 0,0zm-97.46874,1.40625c2.078,5.42125-4.74581,4.23597 0,0zm-3.78125,2.21875c1.13733,2.19297-4.91239,1.4271 0,0zm100.99999,1.90625c-.85427,4.8862.87583,15.30658.65625,19.9375-5.04823,3.12523-5.35496,6.3686-2.1875,5.4375-.0195,2.7894 4.73392.002 1.875,5.21875-.0367,6.74919-10.81517-4.54656-9.75-9.96875-2.81022,4.95422-1.00193,18.65336-1.625,26.78125-.01,8.22887-.0216,16.45863-.0312,24.6875 10.6263-1.79737 3.37109,17.34891 13.5625,12.875 2.44388-6.44515 4.39717-13.07677 8.71875-17.5-.54282-9.71765-2.24485-20.2217-4.09375-29.1875-1.39061-9.2847-2.43975-18.38375-3.53125-27.78125-1.14446-3.18903-.0635-8.89046-3.59375-10.5zm-6.65625.15625c-.47547.0166-1.04743.0822-1.6875.1875-1.59996,8.42181 8.81958-.43673 1.6875-.1875zm-88.18749.0312c1.58506,2.06198-1.35849,3.37306 0,0zm-4,.9375c2.0944,4.19189-7.66516,4.70747 0,0zm-8.21875,4.46875c8.8031.76936-5.18367,3.42091 0,0zm99.84374.5625c-2.58892,5.14108 6.57072,1.04991 0,0zm-89.84374,2.09375c4.03295.15083-9.03216,5.9144-3.15625.78125l2.09375-.71875c.43139-.0447.79364-.0726 1.0625-.0625zm-10.25,1.25c6.69617,1.88383-3.91388,1.8976 0,0zm98.96874.0937c-4.85894,3.08117-2.01982,7.93147 1.84375,10-.22577-6.30574 9.26385,2.17464 3.65625-4.15625-4.65657-2.16696 2.84775-3.92942-3.375-5.28125l-2.125-.5625zm-56.87499.40625c4.02999,2.69252-3.89339,2.35666 0,0zm10.9375,5c3.32758,1.91465-1.98484,2.21504 0,0zm-45.53124,1c3.70377,3.95656-2.12107,3.82057 0,0zm42.87499.0625c.99226,3.60448-6.89808,1.31329 0,0zm-6.875,2.28125c2.76573,2.09123-4.366,2.16598 0,0zm59.65624.65625c-3.43935,2.39206 3.53522,4.3767 0,0zm-49.34374.3125c.45801,5.28502-4.44886,3.25481 0,0zm-16.34375.875c1.58506,2.06198-1.35849,3.37306 0,0zm6,4c1.58506,2.06198-1.35849,3.37306 0,0zm-32.5.8125c4.9912,1.8862-1.71913,2.82265 0,0zm41.375,2.09375c.97236,6.11818-7.49901,5.67025 0,0zm-52.87499.0937c1.58506,2.06195-1.35836,3.37309 0,0zm47.99999,0c1.58506,2.06198-1.35849,3.37306 0,0zm50.74999.6875c1.01035,5.85305 12.69799,6.06654 10.5,9.84375-8.38447,3.45613 4.42244,2.24565-1.3125,8.03125 4.88282,3.32901-7.27351,4.25843 1.59375,5.96875-4.57139,3.3922-10.63664,9.26549-8.96875-.875-.11904-6.32742 4.80511.63401 1.6875-5.28125-7.49614,1.29606 5.34889-2.42-.71875-5.3125-1.76112,2.99033-1.9768,1.22716-2.59375-3.75 7.88731.15454-5.15943-4.05956-.1875-8.625zm-54.71874,2.46875c2.12725,2.48034-3.99972,2.5853 0,0zm-.90625,4.65625c6.04498,4.03878-5.84009,3.53498 0,0zm8.5,0c3.55165,2.0217-3.79012,4.09143 0,0zm-4.4375,1.65625c1.0641,4.54193-.64858,11.09065-.21875,2.1875l.0312-1.21875 .1875-.96875zm-8.9375.40625c3.45723,2.94225-2.87533,3.43975 0,0zm3.90625,3.1875c7.0711,2.08395-4.45902,2.90833-1.21875.28125l1.21875-.28125zm9.96875,1.375c2.81818,3.20275-.65823,12.74916-1.03125,3.5625l.375-2.28125 .65625-1.28125zm-9.15625,2.53125c6.60579,4.72525-9.39502,1.96229 0,0zm21.09375,1.25c.30056,3.68221-5.42356,5.99671-1.03125.46875l1.03125-.46875zm-16.96875,2.0625c1.47246,2.77029-1.39373,5.15615 0,0zm-4.96875,1.53125c6.04615,5.04998-5.87326,5.0017 0,0zm60.43749,2c-3.47178,2.74129 4.96643,2.07188 0,0zm-42.78124.34375c6.16183,3.53761.10599,5.83105 0,0zm-7.71875.65625c5.2627,2.28304-3.63856,2.19538 0,0zm55.12499,3c3.64381,2.47092-4.88979,1.95149 0,0zm-54.15624,1c7.99742,5.5972-5.30398,2.36145 0,0zm53.53124,2c3.32758,1.91465-1.98484,2.21504 0,0zm-44.87499,3c2.98818,2.06551 1.96975,5.56107-1.03125,1.4375l.21875-1 .8125-.4375zm-23.4375,6.40625c-3.13509,3.71842 4.6717,2.80098 0,0zm24.3125.59375c6.23574.84483-5.25173,1.94425 0,0zm-8.21875,4.59375c3.26089,4.99647-5.96422.14233 0,0zm9.125,0c2.6656,1.4315-2.12667,2.41313-2.21875,2.6875-1.74724-1.55602.84984-2.71589 2.21875-2.6875zm-24.84375.40625c-4.02435,3.68219 3.91193,3.83641 0,0zm15.25,5.03125c4.94073,1.50394-6.7172,2.14041 0,0zm-15.125,1.0625c-.4211,2.84868-.26223,15.08506.96875,6.40625 .22126-2.06431.69971-4.77537-.96875-6.40625zm22.3125,5.90625c3.52839,2.21025-1.84629,2.53374 0,0zm-7.5,2c5.24116,2.27445-3.43682,2.53258 0,0zm-1.59375,3.40625c4.0486,1.56249-4.09023,2.12072 0,0zm-12.96875,6.78125c-1.34548,4.38164 1.65213,1.80263 0,0zm17.25,17.625c-.36987.0228-.75721.0915-1.125.1875-10.71487-.62255-4.48219,12.2821 3.65625,7.90625 8.33831-1.02943 3.01677-8.43615-2.53125-8.09375z"/>
</svg>
